<?xml version="1.0" encoding="iso-8859-1"?>
<!-- Generator: Adobe Illustrator 19.0.0, SVG Export Plug-In . SVG Version: 6.00 Build 0)  -->
<svg version="1.1" id="Capa_1" xmlns="http://www.w3.org/2000/svg" xmlns:xlink="http://www.w3.org/1999/xlink" x="0px" y="0px"
	 viewBox="0 0 511.842 511.842" style="enable-background:new 0 0 511.842 511.842;" xml:space="preserve">
<g>
	<g transform="translate(1 1)">
		<path style="fill:#607D8B;" d="M140.935,348.79l17.124,17.124c11.308,11.308,17.661,26.646,17.661,42.638
			c0,15.992-6.353,31.33-17.661,42.638l-5.634,5.634l-102.4-102.4l5.634-5.634C79.207,325.241,117.387,325.241,140.935,348.79z"/>
		<path style="fill:#F44335;" d="M371.419,186.062l16.64-16.64c8.628-8.628,11.997-21.203,8.839-32.989
			c-3.158-11.786-12.364-20.991-24.149-24.149c-11.786-3.158-24.361,0.212-32.989,8.839l-16.64,16.64"/>
		<path style="fill:#2C2F38;" d="M201.888,210.704c-2.264,0.003-4.435-0.897-6.033-2.5l-24.133-24.142
			c-3.322-3.334-3.318-8.728,0.01-12.056c3.328-3.328,8.722-3.333,12.056-0.01l24.133,24.142c2.44,2.44,3.169,6.11,1.849,9.298
			C208.449,208.624,205.339,210.703,201.888,210.704L201.888,210.704z"/>
		<path style="fill:#CFD8DC;" d="M322.539,139.253l48.272,48.272c13.33,13.33,13.33,34.942,0,48.272l-120.68,120.68
			c-26.66,26.66-69.884,26.66-96.544,0c-26.66-26.66-26.66-69.884,0-96.544l120.68-120.68
			C287.596,125.923,309.209,125.923,322.539,139.253z"/>
		<path style="fill:#2C2F38;" d="M331.738,340.604c-2.264,0.003-4.435-0.897-6.033-2.5l-28.583-28.592
			c-3.332-3.332-3.332-8.735,0-12.067c3.332-3.332,8.735-3.332,12.067,0l28.583,28.592c2.44,2.441,3.169,6.11,1.849,9.298
			C338.3,338.524,335.189,340.603,331.738,340.604L331.738,340.604z"/>
		<g>
			<path style="fill:#02A9F4;" d="M207.237,148.43l-23.125,23.125l-12.031,12.032l-23.894,23.893c-6.837,6.826-17.91,6.826-24.747,0
				l-47.787-47.787L12.678,96.718c-6.826-6.837-6.826-17.91,0-24.747l23.893-23.893l12.033-12.032l23.04-23.125
				c6.836-6.826,17.91-6.826,24.746,0l51.029,50.944l12.033,12.032l47.785,47.787C214.065,130.52,214.065,141.594,207.237,148.43z"
				/>
			<path style="fill:#02A9F4;" d="M497.201,437.625l-23.467,23.552l-12.032,12.032l-23.552,23.467
				c-6.836,6.827-17.91,6.827-24.746,0l-47.788-47.787l-62.976-62.976c-6.826-6.837-6.826-17.91,0-24.747l23.552-23.467
				l12.032-12.032l23.467-23.552c6.836-6.826,17.91-6.826,24.746,0l51.03,51.029l11.947,11.947l47.787,47.787
				C504.027,419.715,504.027,430.788,497.201,437.625z"/>
		</g>
		<g>
			<polygon style="fill:#35495E;" points="184.113,171.556 172.081,183.588 36.571,48.078 48.603,36.046 111.921,99.364 
				123.953,111.396 			"/>
			<polygon style="fill:#35495E;" points="159.451,75.897 75.654,159.694 63.622,147.662 99.889,111.396 111.921,99.364 
				147.419,63.865 			"/>
			<polygon style="fill:#35495E;" points="473.734,461.177 461.702,473.209 326.193,337.7 338.225,325.668 401.542,388.985 
				413.574,401.017 			"/>
			<path style="fill:#35495E;" d="M449.415,365.092l-0.427,0.427l-35.414,35.499l-12.032,12.032l-35.925,35.84l-12.031-12.032
				l35.925-35.84l12.031-12.032l35.415-35.499c0.17-0.171,0.341-0.341,0.511-0.341L449.415,365.092z"/>
		</g>
	</g>
	<path d="M393.463,297.087c-10.174-10.15-26.643-10.15-36.817,0l-23.912,23.911l-16.513-16.517l61.649-61.653
		c14.519-14.49,16.642-37.273,5.049-54.196l11.159-11.153c10.784-10.785,14.994-26.504,11.046-41.235
		c-3.948-14.731-15.456-26.237-30.187-30.183c-14.732-3.946-30.45,0.267-41.233,11.051l-11.358,11.358
		c-16.84-10.826-38.952-8.431-53.083,5.751l-61.629,61.629l-16.887-16.893l23.484-23.486c4.882-4.881,7.625-11.501,7.625-18.404
		c0-6.903-2.743-13.524-7.625-18.404L103.462,7.896c-10.299-9.833-26.509-9.833-36.808,0L37.649,36.897
		c-0.041,0.04-0.097,0.051-0.137,0.091c-0.04,0.04-0.051,0.095-0.091,0.137L7.612,66.929c-10.15,10.174-10.15,26.643,0,36.817
		l110.767,110.767c10.171,10.156,26.645,10.156,36.817,0l23.485-23.488l16.885,16.892l-46.988,46.988
		c-18.865,18.914-26.539,46.277-20.258,72.242c-25.52-10.094-54.597-4.092-74.033,15.283l-5.633,5.633
		c-1.601,1.6-2.5,3.77-2.5,6.033c0,2.263,0.899,4.433,2.5,6.033l102.4,102.4c1.6,1.601,3.77,2.5,6.033,2.5s4.433-0.899,6.033-2.5
		l5.633-5.633c19.175-19.225,25.266-47.921,15.555-73.278c26.141,6.645,53.849-0.998,72.887-20.106l46.96-46.963l16.512,16.516
		l-23.055,23.055c-10.15,10.174-10.15,26.643,0,36.817l55.081,55.081c0.711,1.745,2.096,3.13,3.841,3.841l51.844,51.844
		c10.171,10.155,26.645,10.155,36.817,0l29.31-29.31c0.075-0.07,0.175-0.091,0.248-0.165c0.073-0.073,0.095-0.173,0.165-0.248
		l29.31-29.31c10.15-10.174,10.15-26.643,0-36.817L393.463,297.087z M204.788,137.062c0.007,2.38-0.938,4.663-2.625,6.342
		l-23.081,23.085l-54.076-54.076l29.406-29.435l47.751,47.751C203.848,132.405,204.793,134.686,204.788,137.062z M78.721,19.963
		c3.5-3.5,9.175-3.5,12.675,0l50.949,50.949l-29.406,29.435L55.635,43.044L78.721,19.963z M17.054,85.337
		c-0.007-2.38,0.938-4.663,2.625-6.342l23.89-23.886l57.308,57.31l-30.213,30.244L19.679,91.679
		C17.992,90.001,17.047,87.717,17.054,85.337z M143.129,202.446c-3.551,3.383-9.132,3.383-12.683,0L82.73,154.73l30.214-30.244
		l54.071,54.071L143.129,202.446z M381.962,129.137c4.811,4.82,7.517,11.349,7.525,18.158c0.022,6.795-2.672,13.318-7.484,18.117
		l-10.608,10.608l-36.233-36.233l10.608-10.608C355.779,119.235,371.932,119.216,381.962,129.137L381.962,129.137z M156.687,371.621
		c20.027,20.074,20.206,52.516,0.4,72.808l-90.333-90.333c20.296-19.797,52.731-19.619,72.808,0.4L156.687,371.621z
		 M245.129,351.446c-23.334,23.289-61.124,23.272-84.437-0.038c-23.313-23.31-23.334-61.1-0.047-84.437l120.684-120.683
		c4.8-4.802,11.311-7.5,18.1-7.5c6.789,0,13.3,2.698,18.1,7.5l48.275,48.275c4.802,4.8,7.5,11.311,7.5,18.1
		c0,6.789-2.698,13.3-7.5,18.1l-67.669,67.674l-0.015,0.009l-0.009,0.014L245.129,351.446z M368.712,309.154
		c3.503-3.5,9.18-3.5,12.683,0l50.931,50.932l-29.809,29.84l-57.289-57.289L368.712,309.154z M307.054,374.529
		c-0.007-2.38,0.938-4.663,2.625-6.342l23.484-23.484l57.294,57.294l-29.81,29.84l-50.968-50.968
		C307.992,379.192,307.047,376.909,307.054,374.529z M433.129,491.637c-3.551,3.383-9.132,3.383-12.683,0l-47.732-47.732
		l29.809-29.84l54.09,54.089L433.129,491.637z M492.163,432.604l-23.484,23.484l-54.095-54.095l29.809-29.84l47.769,47.768
		C495.663,423.424,495.663,429.101,492.163,432.604L492.163,432.604z"/>
</g>
<g>
</g>
<g>
</g>
<g>
</g>
<g>
</g>
<g>
</g>
<g>
</g>
<g>
</g>
<g>
</g>
<g>
</g>
<g>
</g>
<g>
</g>
<g>
</g>
<g>
</g>
<g>
</g>
<g>
</g>
</svg>
